HIERARCHY
ROOT Hips
{
	OFFSET -14.64140 90.27770 -84.91600
	CHANNELS 6 Xposition Yposition Zposition Zrotation Xrotation Yrotation
	JOINT Spine
	{
		OFFSET 0.00000 13.20850 -1.60436
		CHANNELS 3 Zrotation Xrotation Yrotation
		JOINT Spine1
		{
			OFFSET 0.00000 8.61716 0.00000
			CHANNELS 3 Zrotation Xrotation Yrotation
			JOINT Spine2
			{
				OFFSET 0.00000 8.61717 0.00000
				CHANNELS 3 Zrotation Xrotation Yrotation
				JOINT Spine3
				{
					OFFSET 0.00000 8.61717 0.00000
					CHANNELS 3 Zrotation Xrotation Yrotation
					JOINT Neck
					{
						OFFSET 0.00000 11.07920 1.10792
						CHANNELS 3 Zrotation Xrotation Yrotation
						JOINT Neck1
						{
							OFFSET 0.00000 7.08032 0.00000
							CHANNELS 3 Zrotation Xrotation Yrotation
							JOINT Head
							{
								OFFSET 0.00000 7.08031 0.00000
								CHANNELS 3 Zrotation Xrotation Yrotation
								End site
								{
									OFFSET 0.00000 0.00000 0.00000
								}
							}
						}
					}
					JOINT RightShoulder
					{
						OFFSET -0.01000 7.91373 5.19711
						CHANNELS 3 Zrotation Xrotation Yrotation
						JOINT RightArm
						{
							OFFSET -18.41580 0.00000 0.00000
							CHANNELS 3 Zrotation Xrotation Yrotation
							JOINT RightForeArm
							{
								OFFSET -29.11090 0.00000 0.00000
								CHANNELS 3 Zrotation Xrotation Yrotation
								JOINT RightHand
								{
									OFFSET -24.65040 0.00000 0.00000
									CHANNELS 3 Zrotation Xrotation Yrotation
									JOINT RightHandThumb1
									{
										OFFSET -5.35114 -0.85590 3.97906
										CHANNELS 3 Zrotation Xrotation Yrotation
										JOINT RightHandThumb2
										{
											OFFSET -4.52789 0.00000 0.00000
											CHANNELS 3 Zrotation Xrotation Yrotation
											JOINT RightHandThumb3
											{
												OFFSET -2.46976 0.00000 0.00000
												CHANNELS 3 Zrotation Xrotation Yrotation
												End site
												{
													OFFSET 0.00000 0.00000 0.00000
												}
											}
										}
									}
									JOINT RightHandIndex1
									{
										OFFSET -14.26970 0.00000 2.88139
										CHANNELS 3 Zrotation Xrotation Yrotation
										JOINT RightHandIndex2
										{
											OFFSET -5.48836 0.00000 0.00000
											CHANNELS 3 Zrotation Xrotation Yrotation
											JOINT RightHandIndex3
											{
												OFFSET -3.01859 0.00000 0.00000
												CHANNELS 3 Zrotation Xrotation Yrotation
												End site
												{
													OFFSET 0.00000 0.00000 0.00000
												}
											}
										}
									}
									JOINT RightHandMiddle1
									{
										OFFSET -14.26970 0.00000 -0.09147
										CHANNELS 3 Zrotation Xrotation Yrotation
										JOINT RightHandMiddle2
										{
											OFFSET -6.17441 0.00000 0.00000
											CHANNELS 3 Zrotation Xrotation Yrotation
											JOINT RightHandMiddle3
											{
												OFFSET -3.56743 0.00000 0.00000
												CHANNELS 3 Zrotation Xrotation Yrotation
												End site
												{
													OFFSET 0.00000 0.00000 0.00000
												}
											}
										}
									}
									JOINT RightHandRing1
									{
										OFFSET -12.69180 0.00000 -3.06433
										CHANNELS 3 Zrotation Xrotation Yrotation
										JOINT RightHandRing2
										{
											OFFSET -5.62556 0.00000 0.00000
											CHANNELS 3 Zrotation Xrotation Yrotation
											JOINT RightHandRing3
											{
												OFFSET -3.56744 0.00000 0.00000
												CHANNELS 3 Zrotation Xrotation Yrotation
												End site
												{
													OFFSET 0.00000 0.00000 0.00000
												}
											}
										}
									}
									JOINT RightHandPinky1
									{
										OFFSET -11.11390 0.00000 -6.03719
										CHANNELS 3 Zrotation Xrotation Yrotation
										JOINT RightHandPinky2
										{
											OFFSET -4.52789 0.00000 0.00000
											CHANNELS 3 Zrotation Xrotation Yrotation
											JOINT RightHandPinky3
											{
												OFFSET -2.46976 0.00000 0.00000
												CHANNELS 3 Zrotation Xrotation Yrotation
												End site
												{
													OFFSET 0.00000 0.00000 0.00000
												}
											}
										}
									}
								}
							}
						}
					}
					JOINT LeftShoulder
					{
						OFFSET 0.01000 7.91373 5.19711
						CHANNELS 3 Zrotation Xrotation Yrotation
						JOINT LeftArm
						{
							OFFSET 18.41580 0.00000 0.00000
							CHANNELS 3 Zrotation Xrotation Yrotation
							JOINT LeftForeArm
							{
								OFFSET 29.11090 0.00000 0.00000
								CHANNELS 3 Zrotation Xrotation Yrotation
								JOINT LeftHand
								{
									OFFSET 24.65040 0.00000 0.00000
									CHANNELS 3 Zrotation Xrotation Yrotation
									JOINT LeftHandThumb1
									{
										OFFSET 5.35114 -0.85590 3.97906
										CHANNELS 3 Zrotation Xrotation Yrotation
										JOINT LeftHandThumb2
										{
											OFFSET 4.52789 0.00000 0.00000
											CHANNELS 3 Zrotation Xrotation Yrotation
											JOINT LeftHandThumb3
											{
												OFFSET 2.46977 0.00000 0.00000
												CHANNELS 3 Zrotation Xrotation Yrotation
												End site
												{
													OFFSET 0.00000 0.00000 0.00000
												}
											}
										}
									}
									JOINT LeftHandIndex1
									{
										OFFSET 14.26970 0.00000 2.88139
										CHANNELS 3 Zrotation Xrotation Yrotation
										JOINT LeftHandIndex2
										{
											OFFSET 5.48836 0.00000 0.00000
											CHANNELS 3 Zrotation Xrotation Yrotation
											JOINT LeftHandIndex3
											{
												OFFSET 3.01859 0.00000 0.00000
												CHANNELS 3 Zrotation Xrotation Yrotation
												End site
												{
													OFFSET 0.00000 0.00000 0.00000
												}
											}
										}
									}
									JOINT LeftHandMiddle1
									{
										OFFSET 14.26970 0.00000 -0.09147
										CHANNELS 3 Zrotation Xrotation Yrotation
										JOINT LeftHandMiddle2
										{
											OFFSET 6.17440 0.00000 0.00000
											CHANNELS 3 Zrotation Xrotation Yrotation
											JOINT LeftHandMiddle3
											{
												OFFSET 3.56744 0.00000 0.00000
												CHANNELS 3 Zrotation Xrotation Yrotation
												End site
												{
													OFFSET 0.00000 0.00000 0.00000
												}
											}
										}
									}
									JOINT LeftHandRing1
									{
										OFFSET 12.69180 0.00000 -3.06433
										CHANNELS 3 Zrotation Xrotation Yrotation
										JOINT LeftHandRing2
										{
											OFFSET 5.62556 0.00000 0.00000
											CHANNELS 3 Zrotation Xrotation Yrotation
											JOINT LeftHandRing3
											{
												OFFSET 3.56744 0.00000 0.00000
												CHANNELS 3 Zrotation Xrotation Yrotation
												End site
												{
													OFFSET 0.00000 0.00000 0.00000
												}
											}
										}
									}
									JOINT LeftHandPinky1
									{
										OFFSET 11.11390 0.00000 -6.03719
										CHANNELS 3 Zrotation Xrotation Yrotation
										JOINT LeftHandPinky2
										{
											OFFSET 4.52789 0.00000 0.00000
											CHANNELS 3 Zrotation Xrotation Yrotation
											JOINT LeftHandPinky3
											{
												OFFSET 2.46976 0.00000 0.00000
												CHANNELS 3 Zrotation Xrotation Yrotation
												End site
												{
													OFFSET 0.00000 0.00000 0.00000
												}
											}
										}
									}
								}
							}
						}
					}
					JOINT pCube4
					{
						OFFSET 0.00000 10.91090 1.10792
						CHANNELS 3 Zrotation Xrotation Yrotation
						End site
						{
							OFFSET 0.00000 0.00000 0.00000
						}
					}
				}
			}
		}
	}
	JOINT RightUpLeg
	{
		OFFSET -9.98441 0.00000 0.00000
		CHANNELS 3 Zrotation Xrotation Yrotation
		JOINT RightLeg
		{
			OFFSET 0.00000 -42.11790 0.00000
			CHANNELS 3 Zrotation Xrotation Yrotation
			JOINT RightFoot
			{
				OFFSET 0.00000 -45.00020 -0.00001
				CHANNELS 3 Zrotation Xrotation Yrotation
				JOINT RightForeFoot
				{
					OFFSET 0.00000 -3.74820 0.00000
					CHANNELS 3 Zrotation Xrotation Yrotation
					JOINT RightToeBase
					{
						OFFSET 0.00000 0.06325 14.43120
						CHANNELS 3 Zrotation Xrotation Yrotation
						End site
						{
							OFFSET 0.00000 0.00000 0.00000
						}
					}
				}
			}
		}
	}
	JOINT LeftUpLeg
	{
		OFFSET 9.98441 0.00000 0.00000
		CHANNELS 3 Zrotation Xrotation Yrotation
		JOINT LeftLeg
		{
			OFFSET 0.00000 -42.11800 0.00000
			CHANNELS 3 Zrotation Xrotation Yrotation
			JOINT LeftFoot
			{
				OFFSET 0.00000 -45.00070 0.00000
				CHANNELS 3 Zrotation Xrotation Yrotation
				JOINT LeftForeFoot
				{
					OFFSET 0.00000 -3.74824 0.00000
					CHANNELS 3 Zrotation Xrotation Yrotation
					JOINT LeftToeBase
					{
						OFFSET 0.00000 0.06325 14.43110
						CHANNELS 3 Zrotation Xrotation Yrotation
						End site
						{
							OFFSET 0.00000 0.00000 0.00000
						}
					}
				}
			}
		}
	}
}
MOTION
Frames: 4
Frame Time: 0.050000
0.012877239358782877 -0.011693987423112635 -0.03765362426917762 0.019561124860420415 -0.01624335956785235 0.03950786902518439 -4.132836573416252 2.607513802047521 -0.6758797575482591 -0.9332619723523211 3.619383800429842 0.36870364028478086 -1.1562029503704088 -1.3953881869179396 -0.9192637366228791 -0.2087308629703295 0.17335764356619635 -0.8711279431073504 -0.09024878612365576 10.71675298433963 -0.7617371972260443 -0.10041149573383071 -1.5959136398941705 -4.195004610828065 0.29798363064229705 -17.383157320529318 -0.3297339000562776 -2.239967461944075 1.2457479933515547 -13.136471733459395 72.57130688539426 10.421844911691995 11.0463610172118 34.53853545416568 6.032400351789405 95.32549302082772 18.781790743880325 -0.27378367137113846 -3.628097741306603 4.549985804795012 -0.1400785348455334 -1.5869978650956753 -0.03440536692248265 0.008948225306860312 -56.227162969925395 -0.024056898886089723 0.04127059147688256 -56.26350237853181 -38.76255717625231 -0.021377312180518252 0.01611697811456903 -0.011668001536155707 -0.03594243598845924 -0.02175430344331092 -0.04261524623925534 0.037092128107837054 -0.002921196073196003 -36.70069582994318 -0.014865548402809924 0.02758968235047034 -0.0005567872788451695 0.020836950503677953 0.016963127238042934 0.02410077923727858 0.011092531803571417 0.01967518236324149 -19.75756406727613 0.021933629764495907 0.03850892841562008 0.012619889177688796 -0.026885319240279634 -0.0373870765030477 -0.005131063236297798 0.017804389242339368 -0.01981611204577353 24.101530844716702 -0.030502085823807944 0.02213497370623766 28.902314371219518 -0.039628983119789046 -0.02262261389109366 28.877859101297968 0.018318516352097677 -0.033177641624543334 3.23772314134922 1.0313747973848497 11.676451058374088 -69.11026141580413 24.751023394293668 -9.396784851085036 -21.269769227333498 4.657532779375874 -75.6625897569937 -14.23463189961571 0.41858768678304986 1.3091772939118924 -0.4773143701924081 0.056608568495687725 -8.12532028890155 0.00381660680971443 -0.0291780568732771 44.52473816916619 0.025142744045228406 -0.01568902474569156 44.56013407873036 12.425085697567704 -0.005817099455201567 0.0007569831335855209 0.003017990901190053 -0.03923199429548375 0.013530319270025551 0.00170486585290056 0.020331010600606544 -0.036254102364703875 11.077811067963662 -0.021327470491872072 -0.04727149323509324 -0.026612569793226605 0.0450708262033032 -0.04000002482677051 0.008182727220448837 0.044536739134909825 0.009589208093922098 4.776901511341236 0.002317004850696309 -0.022605325498058475 -0.04373990123935796 -0.007708997421597836 -0.030196181512129643 0.039717894175975654 0.008323083943254359 -0.03843321946059841 -5.567618925234835 -0.02096801852609253 0.014081425049375202 -6.748480981335516 -0.033964422944404035 -0.028880554227720904 -6.681483720393496 0.04253088116524999 -0.013394502834260132 -0.007819882923555135 0.045623297190843695 0.00909527856272027 8.01300719707874 3.529990502276824 -19.252529199768095 -0.04536471617641479 10.413096625167142 0.053861576548332124 -5.622164434882583 -15.65997157374606 3.1821900574011566 -0.017579754976759787 -0.009285269295768176 -0.03892291613849358 0.013283692442441236 4.722722619667151 -0.009018684811056308 12.466891638751715 -8.239456794584777 6.873348740173495 -0.04779052160900199 46.3927639158953 0.004807817848286741 -4.302313074340094 -14.786267284220946 -3.801999135158195 -0.005902605904762247 -0.044925842978846116 -0.02005875693302035 0.012594769939545477 -10.76474204104053 0.046349947338625824 
0.04290766899580358 -0.04487752631538866 0.010289923906852396 0.00829665786037462 0.02365142389180809 0.02599400242022575 -4.227112644268963 2.6411506751696385 -0.653103561567668 -0.871607382394143 3.5359305510412185 0.3382339717633601 -1.2246138632936399 -1.3403085967917627 -0.9774100031927655 -0.16605923608911524 0.25758349102791045 -0.895061514761893 -0.007373685529282185 10.624932770464726 -0.8327854054292493 -0.07740735382659042 -1.552205576023759 -4.456244906005954 0.290291943909369 -17.215875460474404 -0.4043605250633791 -2.039039272324475 1.2182160623469966 -12.952908457835422 72.34928988173326 9.92015461270635 10.89401104337766 36.17138034829338 6.023591061633265 95.72101966861648 18.99713572887674 -0.3326883721095968 -3.91761986898798 4.519934456366075 -0.09767075282840801 -1.6001111397961894 -0.009660397788784622 0.02149359532683172 -56.23373083156013 -0.012585064664780397 0.021906864606912813 -56.227502104122294 -38.77203549006826 0.03803475332794469 0.012968258522835681 -0.025640108743279214 -0.0014555569865299684 -0.029809469026262896 0.018798973160181504 0.0392991617322282 -0.007826162987177622 -36.67241803476092 -0.01349949195167726 0.04007188910523357 0.04192669399847952 -0.03043729120943109 0.0025926193258026453 -0.0014777033667920385 -0.021479268119331665 -0.033953206571075645 -19.778811481411495 -0.012319647122487483 0.0067928327416674796 0.012321661227620283 0.0019985595987362047 0.03293015330845369 0.030047852935929938 -0.04424593636998975 -0.04202548221846189 24.041277506043144 -0.045800263003569194 0.004376097931259248 28.89456930796138 0.021753453905330122 -0.04113437524161318 28.910152385607116 0.03464354323253059 -0.003833510462036097 2.9600140171000713 1.0099053234411917 11.44304531493865 -69.1167027508696 24.87763142094254 -8.96181685928657 -20.901167460787782 4.266907127377967 -74.16014413253608 -14.008940079694616 0.3830896054257641 1.5266410233376193 -0.49270547160617156 0.020010447164196546 -8.131892872861345 0.00932401935607585 0.04912698466654138 44.60709401194362 -0.0006420759824451318 0.04134134008192652 44.53206318289788 12.430244190660353 -0.024876033985735627 0.007768985190917576 -0.03998683855699047 -0.04694579711240741 -0.04340615818034671 0.004306145849630278 0.03496138619475313 -0.014942125906200565 11.074428881337406 -0.029609797737680264 0.0002704333948126752 -0.00394189747258843 -0.039511872785016534 0.007279641127346407 -0.044750454133126644 -0.0015740035039039798 0.03463651037703427 4.772415043256765 -0.01972509784091994 0.03692617222942389 0.02052612104890363 0.04513925457113339 0.041795164292722176 0.042144287489901094 -0.025560085292174205 -0.028918909540054175 -5.595882341573519 0.001572232110575484 -0.03097010208910858 -6.743160111008626 -0.02417179857186414 -0.020241372503331734 -6.689155215331531 -0.021278963802514258 0.013547835641289375 -0.013287220115254739 0.0402627789238864 -0.009272610631871526 8.066807876481919 3.4684079834893664 -19.227404159962227 0.010461115634900741 10.3876436302238 0.03285280228729908 -5.6204294507740515 -15.635287223533904 3.1584226162805593 0.0020442393168268952 0.04174417773209237 -0.016326260551401767 0.0033151277099585756 4.684783850283258 -0.004494737735327597 12.500269047538758 -8.238010841961772 6.859193532293343 -0.027577255541845973 46.362061565509826 -0.02224326521390152 -4.320425238479926 -14.73379452742464 -3.883811300683551 -0.013469463545338796 0.029517445499971758 -0.026326230129197766 0.04375156245306562 -10.714176301799208 0.007860726485243922 
-0.02501269944836268 0.009993655171286017 -0.02529215069003204 0.02392856071886806 -0.037790560443178654 -0.013869689966123512 -4.218223377097772 2.5515776755757815 -0.7066680871871346 -0.8632718685771175 3.5907940812704666 0.37876094472750604 -1.2360200595080102 -1.3949047174766518 -1.0002087201828338 -0.1560830483206254 0.28572668001675783 -0.8213781825851879 0.10321145983841794 10.7368614876327 -0.9095341441434247 -0.0564913214298783 -1.4419809509266932 -4.560823020265315 0.3509710919925911 -17.063361670266957 -0.3849702262342729 -2.0520938628465695 1.2382533510146696 -12.888032629261868 72.16710701968921 9.569730438553119 10.914736486903438 37.705164539209015 6.068496931085347 95.93805898496458 19.043402145214376 -0.278007698779957 -4.124641465406309 4.574032058711823 -0.13961364249431 -1.593586885232171 -0.02022094671260678 0.008744892031269044 -56.223712044097425 -0.0472321459829135 0.035095953283647036 -56.238817363234894 -38.78125476255079 0.018337070202836 -0.009986195598901876 0.02787056130102443 -0.012514493601428608 0.00898561834678699 -0.017189369795358896 -0.0009593850941625093 0.005564315430105575 -36.64620833051071 -0.016928063125512035 0.04287823194280061 0.019873201967110638 0.014690012097735204 0.03466206153061915 0.030472275123553903 0.01297733037541507 0.018830739625992177 -19.789239571096925 -0.03794872129947022 -0.02907994068682953 -0.03966333277535811 0.03334121908756892 0.003449104831850449 0.04880304091093599 0.01097102836934864 0.03842419020164279 24.029513262238986 0.03868539970108372 -0.047467651590068875 28.830572491814845 -0.025907421648375024 0.046904087525551905 28.86093857334266 0.010456648214956827 0.010744328245609806 2.900719092981062 0.9512203566900013 11.389171272479617 -69.19040803888059 25.214712454183417 -8.660996380650603 -20.65914348728859 4.166540868346634 -73.44027774024599 -13.722170095906016 0.2659300430342261 1.6595349560097143 -0.46937357203124325 0.05640158384735007 -8.079142540390338 0.008284211998568053 -0.04498927514235319 44.55856088751515 0.015330275418754369 0.036781589152423924 44.61303472654321 12.473122739496901 0.015458252598331007 0.010521224630890705 -0.02202564480216408 0.03517064118376707 -0.022862285124669365 0.02310232133022287 0.0044992963555987725 0.044394006667401516 11.14801640909794 -0.03306944222247192 -0.03986150957677481 -0.004160407067430926 -0.02141992909525274 -0.0069237351834092915 -0.046604140578621944 0.04129624709969764 0.04222065605172467 4.781606625801732 0.0408425136324551 -0.04223031845650489 -0.012524425206615092 -0.01783668984936376 0.04588816885496487 -0.00026735493871849804 0.04579033385214659 -0.04260626623166634 -5.572965653794038 0.04438322221825753 0.02180180311154038 -6.73500139804486 -0.013062628836133797 -0.03784211799528919 -6.711744239712623 0.044245185385478746 -0.01604198092195861 -0.005135967848137807 -0.026680070150689867 -0.02094365367435372 8.046540645532472 3.476313015601534 -19.237171272838754 0.025341460384932617 10.40511789777932 0.008642583143791047 -5.611158036553768 -15.68494698908879 3.1543354430263086 0.04995803918537812 0.01675851255156788 -0.011418018234874299 -0.018875013816768087 4.710680806206869 -0.04618041726182881 12.437290426178208 -8.220028497364876 6.877620133698774 0.019625174014670763 46.348822095814626 -0.023586214083935606 -4.280091962758426 -14.747807063584622 -3.8305715345071727 0.008791267449054108 0.009140844324628656 -0.033870519016864775 -0.02026806611138701 -10.777615741998096 0.0377716807396224 
-0.02753293523897983 -0.006849505834614945 0.010840760017368766 -0.024460521274370067 0.04733347075364242 -0.027320322043557638 -4.179683908462672 2.397750980382865 -0.605165774895285 -0.9341925521921398 3.559461255064231 0.3934882194973921 -1.2675106229196764 -1.430883723779432 -1.0510466993032748 -0.11530467751261733 0.2880999564290331 -0.9022619549108619 0.06170202957857898 10.89572786661817 -0.8725415113700915 -0.033504513080648335 -1.2299953043391203 -4.524984430718229 0.3007765402398646 -16.699545841370046 -0.3190747706019108 -2.1939878483537854 1.2593879078858512 -12.91542401209094 72.16375321204278 9.363207972187459 10.998348449168965 39.097973781376865 6.129273963222095 96.05172800988483 18.901751543477605 -0.2420639401737112 -4.105398950484889 4.507751817179626 -0.1756650161360707 -1.6203985404732422 -0.01182759278941999 -0.024033893984008348 -56.19805424203118 -0.015356715471685196 -0.007519425586177842 -56.283938969587844 -38.77669557004039 -0.03461378653616914 -0.03598229648360237 0.021862390334273257 -0.02295188918718075 -0.046990904786022435 0.013806778902278239 -0.021277930212909777 0.0025919515111388286 -36.69072778182185 -0.006097922949133361 -0.010152532021607907 -0.02829800699937092 -0.001654894343443076 0.01401711964589671 -0.02010785236252794 0.006243742173217601 0.008539459828436178 -19.779046500798604 -0.03240242402415302 0.03861898925746611 -0.046597802579367464 -0.024349565178551365 -0.02350334980977901 -0.004691607014902907 -0.002951460399634912 0.03306296831175155 24.014573318842267 -0.028607427493402404 0.011213173235374064 28.85948494250195 0.03598175794362117 0.043469106182896386 28.826532720881332 0.03469067433317819 -0.01246766381729227 2.962822086735713 0.9657022700255515 11.390472349694369 -69.13160852868961 25.387313152974873 -8.477651947614147 -20.712867804684592 4.426312877666835 -73.22115411656632 -13.418633541061611 0.23330902403220496 1.7447852140579276 -0.4701525719537129 0.06725751096742204 -8.155185986302076 -0.03104977630143194 0.016743122412259025 44.532250105969354 -0.01635295986631033 0.00668467246113717 44.53681390256031 12.464010079105766 0.003395259051777856 -0.022493204019054792 -0.019806570848692077 -0.040013304639255516 -0.004768910940968156 -0.003873633152712253 0.04612205657405497 -0.010760432199721186 11.101122326035087 0.0009544379045397482 -0.0217160812738466 0.0025725036608502273 0.007891139475098697 0.010738586362203565 -0.010227597890478786 0.027891639262492215 -0.003595279391479562 4.789443438966209 0.02081492868599608 0.0143921260649283 -0.04721740453421611 0.017616195113219643 -0.0199142360717548 -0.019647891105796893 0.002387083261357804 -0.0057924154077205175 -5.643306123941125 0.03619297615063602 0.04569761366037485 -6.740713212014008 0.0027774786075528374 0.013817064427339577 -6.7011221483439165 -0.028250213954766495 -0.019748972457716295 0.03536735263041703 -0.003744299950038331 0.038917645137269904 8.060404972935808 3.473951768991426 -19.20808343566584 0.03160888469746741 10.42239845533466 0.04835112303755153 -5.663647901421588 -15.620943364267257 3.1511867246629968 -0.044753286391363827 -0.03302327319597415 -0.004570692185581631 -0.03556672262340662 4.672592051604712 -0.048730232924580945 12.482120311148606 -8.228179115493681 6.867886785486318 -0.009789917738190204 46.41322532921111 0.041567420318953774 -4.3021779663533 -14.749668480982429 -3.8417034308127094 -0.01113233161706005 -0.026279720878551446 -0.038938415195821384 -0.010079803076707047 -10.761474908782493 -0.02420057285946372 
